<?xml version="1.0" standalone="no"?>
<!DOCTYPE svg PUBLIC "-//W3C//DTD SVG 20010904//EN"
 "http://www.w3.org/TR/2001/REC-SVG-20010904/DTD/svg10.dtd">
<svg version="1.0" xmlns="http://www.w3.org/2000/svg"
 width="64.000000pt" height="64.000000pt" viewBox="0 0 64.000000 64.000000"
 preserveAspectRatio="xMidYMid meet">

<g transform="translate(0.000000,64.000000) scale(0.100000,-0.100000)"
fill="#000000" stroke="none">
<path d="M395 620 c-17 -18 -16 -21 21 -72 111 -154 124 -169 145 -158 10 6
19 15 19 21 0 9 -158 229 -164 229 -2 0 -11 -9 -21 -20z"/>
<path d="M297 526 c-16 -23 -14 -25 61 -88 42 -36 91 -77 108 -91 l32 -27 16
24 c15 24 14 25 -71 98 -143 120 -128 112 -146 84z"/>
<path d="M219 404 c-5 -15 -8 -27 -7 -28 2 -1 59 -28 127 -60 99 -47 125 -56
132 -45 23 37 14 44 -189 135 l-53 24 -10 -26z"/>
<path d="M180 286 c0 -8 -2 -20 -5 -28 -4 -10 28 -21 130 -42 75 -16 137 -27
139 -25 2 2 7 14 10 26 8 25 13 24 -146 58 -138 29 -128 29 -128 11z"/>
<path d="M50 115 l0 -115 255 0 255 0 0 115 0 115 -30 0 -30 0 0 -85 0 -85
-195 0 -195 0 0 85 0 85 -30 0 -30 0 0 -115z"/>
<path d="M170 140 l0 -31 138 3 137 3 3 28 3 27 -140 0 -141 0 0 -30z"/>
</g>
</svg>
