<?xml version="1.0" encoding="UTF-8"?>
<!DOCTYPE svg PUBLIC "-//W3C//DTD SVG 1.1//EN" "http://www.w3.org/Graphics/SVG/1.1/DTD/svg11.dtd">
<svg xmlns="http://www.w3.org/2000/svg" version="1.1" width="64px" height="64px" style="shape-rendering:geometricPrecision; text-rendering:geometricPrecision; image-rendering:optimizeQuality; fill-rule:evenodd; clip-rule:evenodd" xmlns:xlink="http://www.w3.org/1999/xlink">
<g><path style="opacity:0.975" fill="#000000" d="M 63.5,4.5 C 63.5,18.5 63.5,32.5 63.5,46.5C 62.2511,48.1361 60.5844,49.3028 58.5,50C 47.8333,50.3333 37.1667,50.6667 26.5,51C 22.9336,54.5664 19.4336,58.0664 16,61.5C 15.228,61.3552 14.5613,61.0219 14,60.5C 13.5017,57.1832 13.335,53.8499 13.5,50.5C 8.04303,51.3976 3.37637,50.0643 -0.5,46.5C -0.5,32.5 -0.5,18.5 -0.5,4.5C 0.626561,3.87833 1.62656,3.04499 2.5,2C 21.8333,1.33333 41.1667,1.33333 60.5,2C 61.3734,3.04499 62.3734,3.87833 63.5,4.5 Z"/></g>
</svg>
