<?xml version="1.0" standalone="no"?>
<!DOCTYPE svg PUBLIC "-//W3C//DTD SVG 20010904//EN"
 "http://www.w3.org/TR/2001/REC-SVG-20010904/DTD/svg10.dtd">
<svg version="1.0" xmlns="http://www.w3.org/2000/svg"
 width="64.000000pt" height="64.000000pt" viewBox="0 0 64.000000 64.000000"
 preserveAspectRatio="xMidYMid meet">

<g transform="translate(0.000000,64.000000) scale(0.100000,-0.100000)"
fill="#000000" stroke="none">
<path d="M223 622 c-109 -39 -178 -112 -210 -221 -41 -144 35 -303 176 -370
46 -21 70 -26 136 -26 71 1 87 4 143 34 109 59 166 156 167 281 0 90 -30 164
-90 225 -82 81 -219 114 -322 77z m225 -43 c57 -28 78 -49 51 -49 -8 0 -8 -4
0 -14 8 -10 8 -16 -3 -25 -11 -9 -15 -8 -19 4 -4 9 -13 12 -23 8 -15 -5 -15
-7 0 -15 18 -10 22 -39 5 -35 -6 1 -14 -4 -16 -10 -6 -17 17 -16 41 2 17 13
22 13 40 -3 20 -16 20 -16 7 1 -8 10 -9 17 -3 17 6 0 16 -8 21 -17 6 -10 11
-14 11 -10 0 11 40 -12 40 -23 0 -13 -82 -3 -90 11 -10 15 -62 0 -85 -26 -11
-11 -21 -32 -22 -45 -2 -29 23 -61 43 -53 8 3 25 2 38 -1 24 -6 36 -32 41 -86
1 -14 6 -39 10 -57 7 -30 4 -34 -40 -65 -63 -45 -98 -56 -176 -57 -158 -2
-289 127 -289 284 0 66 8 105 20 105 5 0 10 -10 12 -22 2 -13 9 -22 15 -21 7
2 15 -6 18 -17 4 -11 14 -20 24 -20 9 0 26 -7 37 -15 28 -21 35 -18 22 10 -8
18 -17 24 -30 19 -13 -4 -18 0 -18 15 0 26 47 41 61 20 7 -11 9 -11 9 -1 0 22
83 93 102 89 28 -8 29 20 1 38 -24 16 -26 16 -40 -4 -12 -17 -18 -19 -35 -10
-22 12 -14 28 16 33 9 1 16 5 16 9 0 4 0 12 0 17 0 6 -5 10 -11 10 -5 0 -7 -4
-4 -10 3 -5 -1 -10 -9 -10 -8 0 -18 5 -21 10 -3 6 -13 10 -21 10 -8 0 -12 -4
-9 -10 3 -5 2 -10 -4 -10 -25 0 -18 19 12 33 53 24 59 25 128 26 54 1 76 -4
127 -30z m-234 -108 c3 -5 -1 -11 -9 -14 -9 -4 -12 -1 -8 9 6 16 10 17 17 5z"/>
<path d="M270 560 c0 -5 7 -10 16 -10 8 0 12 -4 9 -10 -3 -5 1 -10 9 -10 21 0
31 21 15 31 -19 12 -49 11 -49 -1z"/>
<path d="M213 318 c-33 -53 -34 -60 -9 -93 16 -20 28 -53 32 -86 6 -50 26 -89
45 -89 4 0 4 12 0 27 -6 22 -3 32 16 46 13 10 23 27 23 37 0 10 8 20 19 23 21
5 34 56 19 75 -6 6 -19 12 -29 12 -11 0 -19 4 -19 9 0 24 -84 58 -97 39z"/>
</g>
</svg>
