<?xml version="1.0" standalone="no"?>
<!DOCTYPE svg PUBLIC "-//W3C//DTD SVG 20010904//EN"
 "http://www.w3.org/TR/2001/REC-SVG-20010904/DTD/svg10.dtd">
<svg version="1.0" xmlns="http://www.w3.org/2000/svg"
 width="128.000000pt" height="128.000000pt" viewBox="0 0 128.000000 128.000000"
 preserveAspectRatio="xMidYMid meet">

<g transform="translate(0.000000,128.000000) scale(0.100000,-0.100000)"
fill="#000000" stroke="none">
<path d="M407 1270 c-77 -14 -191 -73 -253 -131 -102 -97 -164 -265 -149 -404
37 -358 407 -559 728 -396 34 18 57 25 57 18 0 -7 75 -87 168 -179 123 -124
175 -169 198 -174 66 -13 133 54 120 120 -5 23 -50 75 -174 199 -92 92 -172
167 -179 167 -7 0 0 23 18 58 141 278 10 605 -285 705 -60 20 -184 29 -249 17z
m245 -152 c127 -59 210 -179 217 -316 5 -116 -24 -197 -103 -280 -138 -145
-369 -151 -520 -12 -104 96 -145 264 -96 393 39 105 111 179 216 223 82 34
203 31 286 -8z"/>
</g>
</svg>
