<?xml version="1.0" standalone="no"?>
<!DOCTYPE svg PUBLIC "-//W3C//DTD SVG 20010904//EN"
 "http://www.w3.org/TR/2001/REC-SVG-20010904/DTD/svg10.dtd">
<svg version="1.0" xmlns="http://www.w3.org/2000/svg"
 width="64.000000pt" height="64.000000pt" viewBox="0 0 64.000000 64.000000"
 preserveAspectRatio="xMidYMid meet">

<g transform="translate(0.000000,64.000000) scale(0.100000,-0.100000)"
fill="#000000" stroke="none">
<path d="M390 495 l-34 -35 52 -52 52 -52 35 34 c19 19 35 38 35 44 0 14 -81
96 -95 96 -6 0 -26 -16 -45 -35z"/>
<path d="M222 327 l-112 -112 0 -53 0 -52 53 0 52 0 113 113 c61 62 112 117
112 122 0 13 -82 95 -95 95 -6 0 -61 -51 -123 -113z"/>
</g>
</svg>
