<?xml version="1.0" encoding="UTF-8"?>
<!DOCTYPE svg PUBLIC "-//W3C//DTD SVG 1.1//EN" "http://www.w3.org/Graphics/SVG/1.1/DTD/svg11.dtd">
<svg xmlns="http://www.w3.org/2000/svg" version="1.1" width="1523px" height="304px" style="shape-rendering:geometricPrecision; text-rendering:geometricPrecision; image-rendering:optimizeQuality; fill-rule:evenodd; clip-rule:evenodd" xmlns:xlink="http://www.w3.org/1999/xlink">
<g><path style="opacity:1" fill="#fefefe" d="M -0.5,-0.5 C 507.167,-0.5 1014.83,-0.5 1522.5,-0.5C 1522.5,100.833 1522.5,202.167 1522.5,303.5C 1014.83,303.5 507.167,303.5 -0.5,303.5C -0.5,202.167 -0.5,100.833 -0.5,-0.5 Z"/></g>
<g><path style="opacity:1" fill="#f48126" d="M 175.5,5.5 C 176.822,5.33003 177.989,5.66337 179,6.5C 204.711,41.4225 230.545,76.2558 256.5,111C 249.833,116 243.167,121 236.5,126C 235.004,126.507 233.837,126.007 233,124.5C 207.667,90.5 182.333,56.5 157,22.5C 156.251,21.365 156.417,20.365 157.5,19.5C 163.829,15.1607 169.829,10.494 175.5,5.5 Z"/></g>
<g><path style="opacity:1" fill="#f48126" d="M 127.5,47.5 C 129.255,48.0722 130.922,48.9055 132.5,50C 165.167,77.3333 197.833,104.667 230.5,132C 224.791,138.04 219.457,144.374 214.5,151C 212.369,150.602 210.369,149.602 208.5,148C 176.389,121.523 144.555,94.6898 113,67.5C 112.333,66.8333 112.333,66.1667 113,65.5C 118.449,59.8957 123.283,53.8957 127.5,47.5 Z"/></g>
<g><path style="opacity:1" fill="#222426" d="M 637.5,93.5 C 642.833,93.5 648.167,93.5 653.5,93.5C 653.333,125.168 653.5,156.835 654,188.5C 669.93,173.115 685.763,157.615 701.5,142C 707.833,141.333 714.167,141.333 720.5,142C 707.791,154.374 695.458,167.041 683.5,180C 697.911,202.82 712.578,225.487 727.5,248C 720.918,248.81 714.418,248.643 708,247.5C 696.365,228.367 684.531,209.367 672.5,190.5C 665.816,196.35 659.65,202.683 654,209.5C 653.5,222.496 653.333,235.496 653.5,248.5C 648.167,248.5 642.833,248.5 637.5,248.5C 637.5,196.833 637.5,145.167 637.5,93.5 Z"/></g>
<g><path style="opacity:1" fill="#222426" d="M 1171.5,93.5 C 1179.17,93.5 1186.83,93.5 1194.5,93.5C 1194.5,101.167 1194.5,108.833 1194.5,116.5C 1189.82,116.334 1185.15,116.501 1180.5,117C 1177.51,118.159 1175.84,120.325 1175.5,123.5C 1174.51,128.64 1174.18,133.974 1174.5,139.5C 1181.5,139.5 1188.5,139.5 1195.5,139.5C 1195.5,146.5 1195.5,153.5 1195.5,160.5C 1188.5,160.5 1181.5,160.5 1174.5,160.5C 1174.5,189.833 1174.5,219.167 1174.5,248.5C 1165.5,248.5 1156.5,248.5 1147.5,248.5C 1147.33,204.165 1147.5,159.832 1148,115.5C 1152.16,104.176 1159.99,96.843 1171.5,93.5 Z"/></g>
<g><path style="opacity:1" fill="#808283" d="M 1171.5,93.5 C 1179.32,92.5076 1187.32,92.1743 1195.5,92.5C 1195.83,100.684 1195.49,108.684 1194.5,116.5C 1194.5,108.833 1194.5,101.167 1194.5,93.5C 1186.83,93.5 1179.17,93.5 1171.5,93.5 Z"/></g>
<g><path style="opacity:1" fill="#232527" d="M 1208.5,93.5 C 1217.83,93.5 1227.17,93.5 1236.5,93.5C 1236.33,135.501 1236.5,177.501 1237,219.5C 1237.83,221.667 1239.33,223.167 1241.5,224C 1246.82,224.499 1252.16,224.666 1257.5,224.5C 1257.5,232.5 1257.5,240.5 1257.5,248.5C 1248.83,248.666 1240.16,248.5 1231.5,248C 1219.16,244.323 1211.66,236.156 1209,223.5C 1208.5,180.168 1208.33,136.835 1208.5,93.5 Z"/></g>
<g><path style="opacity:1" fill="#f48126" d="M 89.5,102.5 C 129.483,121.157 169.483,139.824 209.5,158.5C 205.563,166.492 201.73,174.492 198,182.5C 157.904,163.867 118.071,144.867 78.5,125.5C 81.9799,117.718 85.6466,110.051 89.5,102.5 Z"/></g>
<g><path style="opacity:1" fill="#8a8b8c" d="M 407.5,108.5 C 407.5,108.833 407.5,109.167 407.5,109.5C 402.5,109.5 397.5,109.5 392.5,109.5C 392.5,147.5 392.5,185.5 392.5,223.5C 391.501,185.337 391.168,147.004 391.5,108.5C 396.833,108.5 402.167,108.5 407.5,108.5 Z"/></g>
<g><path style="opacity:1" fill="#222426" d="M 407.5,109.5 C 407.5,121.167 407.5,132.833 407.5,144.5C 417.167,144.5 426.833,144.5 436.5,144.5C 432.241,148.651 427.908,152.818 423.5,157C 418.177,157.499 412.844,157.666 407.5,157.5C 407.333,179.503 407.5,201.503 408,223.5C 408.878,229.207 412.045,232.874 417.5,234.5C 421.298,235.483 425.298,235.817 429.5,235.5C 429.5,239.833 429.5,244.167 429.5,248.5C 423.158,248.666 416.825,248.5 410.5,248C 398.899,243.905 392.899,235.738 392.5,223.5C 392.5,185.5 392.5,147.5 392.5,109.5C 397.5,109.5 402.5,109.5 407.5,109.5 Z"/></g>
<g><path style="opacity:1" fill="#232527" d="M 785.5,135.5 C 811.892,132.438 830.059,143.104 840,167.5C 843.825,186.365 843.158,205.032 838,223.5C 827.298,243.768 810.465,252.268 787.5,249C 767.451,245.581 754.951,234.081 750,214.5C 748.449,200.875 748.116,187.208 749,173.5C 753.571,153.431 765.738,140.764 785.5,135.5 Z"/></g>
<g><path style="opacity:1" fill="#232527" d="M 982.5,136.5 C 990.507,136.334 998.507,136.5 1006.5,137C 1025.05,141.882 1036.55,153.716 1041,172.5C 1042.29,182.121 1042.79,191.788 1042.5,201.5C 1019.17,201.5 995.833,201.5 972.5,201.5C 972.947,213.776 978.947,221.943 990.5,226C 1003.02,227.933 1014.02,224.767 1023.5,216.5C 1029.17,221.5 1034.5,226.833 1039.5,232.5C 1032.44,241.036 1023.44,246.536 1012.5,249C 995.37,252.65 979.37,249.983 964.5,241C 952.585,230.615 946.418,217.449 946,201.5C 943.628,182.685 947.961,165.685 959,150.5C 965.898,144.139 973.732,139.473 982.5,136.5 Z"/></g>
<g><path style="opacity:1" fill="#232527" d="M 1083.5,137.5 C 1083.18,140.898 1083.51,144.232 1084.5,147.5C 1085.11,147.376 1085.44,147.043 1085.5,146.5C 1092.48,139.615 1100.98,136.281 1111,136.5C 1117.07,136.475 1122.9,137.641 1128.5,140C 1132.13,141.645 1135.13,143.979 1137.5,147C 1131.36,154.305 1124.7,161.138 1117.5,167.5C 1102.97,157.186 1092.13,160.186 1085,176.5C 1084.5,200.831 1084.33,225.164 1084.5,249.5C 1075.17,249.5 1065.83,249.5 1056.5,249.5C 1056.5,212.167 1056.5,174.833 1056.5,137.5C 1065.5,137.5 1074.5,137.5 1083.5,137.5 Z"/></g>
<g><path style="opacity:1" fill="#232527" d="M 1302.5,135.5 C 1332.67,133.531 1350.84,147.197 1357,176.5C 1357.75,188.862 1357.42,201.196 1356,213.5C 1351.14,234.027 1338.31,245.86 1317.5,249C 1297.64,251.315 1281.8,244.481 1270,228.5C 1267.2,222.768 1265.2,216.768 1264,210.5C 1263.33,198.833 1263.33,187.167 1264,175.5C 1267.87,153.463 1280.71,140.129 1302.5,135.5 Z"/></g>
<g><path style="opacity:1" fill="#232527" d="M 843.5,136.5 C 853.416,136.181 863.25,136.514 873,137.5C 880.535,159.771 887.868,182.104 895,204.5C 902.531,182.24 909.864,159.907 917,137.5C 926.75,136.514 936.584,136.181 946.5,136.5C 933.633,173.243 920.466,209.909 907,246.5C 903.429,247.792 899.595,248.458 895.5,248.5C 891.405,248.458 887.571,247.792 884,246.5C 870.395,209.848 856.895,173.182 843.5,136.5 Z"/></g>
<g><path style="opacity:1" fill="#8d8e8f" d="M 1083.5,137.5 C 1084.17,140.5 1084.83,143.5 1085.5,146.5C 1085.44,147.043 1085.11,147.376 1084.5,147.5C 1083.51,144.232 1083.18,140.898 1083.5,137.5 Z"/></g>
<g><path style="opacity:1" fill="#232527" d="M 1404.5,203.5 C 1405.17,206.167 1405.83,206.167 1406.5,203.5C 1413.5,181.512 1420.5,159.512 1427.5,137.5C 1434.47,136.503 1441.47,136.17 1448.5,136.5C 1455.5,159.326 1463,181.993 1471,204.5C 1477.16,182.194 1483.16,159.861 1489,137.5C 1499.14,136.392 1509.31,136.725 1519.5,138.5C 1507.96,175.106 1496.63,211.773 1485.5,248.5C 1477.5,249.833 1469.5,249.833 1461.5,248.5C 1454.15,225.292 1446.32,202.292 1438,179.5C 1429.99,202.697 1422.49,226.031 1415.5,249.5C 1407.5,249.5 1399.5,249.5 1391.5,249.5C 1380.87,212.12 1369.54,174.953 1357.5,138C 1367.49,137.5 1377.49,137.334 1387.5,137.5C 1392.92,159.582 1398.58,181.582 1404.5,203.5 Z"/></g>
<g><path style="opacity:1" fill="#8f9091" d="M 1175.5,123.5 C 1175.5,128.5 1175.5,133.5 1175.5,138.5C 1182.35,138.176 1189.02,138.509 1195.5,139.5C 1188.5,139.5 1181.5,139.5 1174.5,139.5C 1174.18,133.974 1174.51,128.64 1175.5,123.5 Z"/></g>
<g><path style="opacity:1" fill="#252729" d="M 329.5,140.5 C 346.057,138.601 361.057,142.434 374.5,152C 371.287,155.549 367.787,158.716 364,161.5C 352.881,154.349 340.714,151.849 327.5,154C 314.689,156.773 309.856,164.606 313,177.5C 314.549,182.042 317.716,184.875 322.5,186C 331.461,187.329 340.461,188.329 349.5,189C 372.983,190.148 382.816,202.315 379,225.5C 373.973,238.616 364.473,246.45 350.5,249C 334.598,252.183 319.264,250.516 304.5,244C 300.111,241.477 296.111,238.477 292.5,235C 295,231.167 298.167,228 302,225.5C 316.973,237.783 333.806,240.95 352.5,235C 364.127,229.369 367.294,220.536 362,208.5C 359.612,205.366 356.446,203.533 352.5,203C 340.013,202.29 327.68,200.623 315.5,198C 300.869,191.576 295.036,180.41 298,164.5C 301.807,154.026 308.974,146.859 319.5,143C 322.991,142.262 326.325,141.429 329.5,140.5 Z"/></g>
<g><path style="opacity:1" fill="#252729" d="M 467.5,140.5 C 478.544,140.181 489.544,140.681 500.5,142C 514.519,146.02 523.019,155.187 526,169.5C 526.5,195.831 526.667,222.165 526.5,248.5C 521.167,248.5 515.833,248.5 510.5,248.5C 510.665,245.15 510.498,241.817 510,238.5C 498.527,248.098 485.36,251.598 470.5,249C 451.581,247.582 441.581,237.415 440.5,218.5C 440.926,201.903 449.259,191.737 465.5,188C 480.163,187.5 494.83,187.333 509.5,187.5C 509.848,180.094 509.348,172.761 508,165.5C 505.872,162.37 503.372,159.537 500.5,157C 487.585,152.084 474.918,152.417 462.5,158C 460,160.5 457.5,163 455,165.5C 452,162.5 449,159.5 446,156.5C 445.333,155.5 445.333,154.5 446,153.5C 451.928,146.96 459.094,142.626 467.5,140.5 Z"/></g>
<g><path style="opacity:1" fill="#252729" d="M 576.5,140.5 C 590.678,138.283 603.678,141.116 615.5,149C 617.888,151.05 619.888,153.384 621.5,156C 619,159.833 615.833,163 612,165.5C 599.408,153.46 585.241,151.294 569.5,159C 562.598,164.632 558.098,171.798 556,180.5C 555.333,189.833 555.333,199.167 556,208.5C 563.433,234.464 579.6,241.964 604.5,231C 607.312,229.023 609.978,226.856 612.5,224.5C 615.484,226.984 618.318,229.65 621,232.5C 621.667,233.5 621.667,234.5 621,235.5C 602.254,253.058 581.754,255.225 559.5,242C 549.577,233.322 543.41,222.488 541,209.5C 539.877,196.714 540.544,184.047 543,171.5C 548.985,155.34 560.152,145.007 576.5,140.5 Z"/></g>
<g><path style="opacity:1" fill="#919293" d="M 407.5,108.5 C 408.495,119.988 408.828,131.655 408.5,143.5C 418.585,143.168 427.918,143.501 436.5,144.5C 426.833,144.5 417.167,144.5 407.5,144.5C 407.5,132.833 407.5,121.167 407.5,109.5C 407.5,109.167 407.5,108.833 407.5,108.5 Z"/></g>
<g><path style="opacity:1" fill="#fcfcfc" d="M 1013.5,176.5 C 1013.5,178.167 1013.5,179.833 1013.5,181.5C 1000.17,181.5 986.833,181.5 973.5,181.5C 973.5,179.833 973.5,178.167 973.5,176.5C 975.244,165.091 981.911,159.425 993.5,159.5C 1005.06,159.395 1011.73,165.061 1013.5,176.5 Z"/></g>
<g><path style="opacity:1" fill="#fbfbfb" d="M 791.5,160.5 C 803.187,159.371 810.687,164.371 814,175.5C 814.667,186.833 814.667,198.167 814,209.5C 809.013,223.571 799.513,227.738 785.5,222C 780.59,217.625 777.756,212.125 777,205.5C 776.196,195.127 776.529,184.793 778,174.5C 780.017,167.318 784.517,162.652 791.5,160.5 Z"/></g>
<g><path style="opacity:1" fill="#fbfcfc" d="M 1306.5,160.5 C 1320.23,159.608 1328.06,165.942 1330,179.5C 1330.83,189.545 1330.5,199.545 1329,209.5C 1325.89,221.81 1318.06,226.644 1305.5,224C 1297.83,221.166 1293.66,215.666 1293,207.5C 1292.33,196.833 1292.33,186.167 1293,175.5C 1294.78,167.868 1299.28,162.868 1306.5,160.5 Z"/></g>
<g><path style="opacity:1" fill="#f48126" d="M 66.5,163.5 C 109.71,172.803 153.044,181.469 196.5,189.5C 194.577,198.116 192.91,206.783 191.5,215.5C 148.808,206.861 106.141,198.028 63.5,189C 62.572,188.612 61.9054,187.945 61.5,187C 63.8807,179.312 65.5474,171.478 66.5,163.5 Z"/></g>
<g><path style="opacity:1" fill="#c1c2c2" d="M 973.5,176.5 C 973.5,178.167 973.5,179.833 973.5,181.5C 986.833,181.5 1000.17,181.5 1013.5,181.5C 1013.5,179.833 1013.5,178.167 1013.5,176.5C 1014.46,178.265 1014.79,180.265 1014.5,182.5C 1000.5,182.5 986.5,182.5 972.5,182.5C 972.205,180.265 972.539,178.265 973.5,176.5 Z"/></g>
<g><path style="opacity:1" fill="#bbbbba" d="M 31.5,196.5 C 31.5,222.833 31.5,249.167 31.5,275.5C 93.6689,275.832 155.669,275.499 217.5,274.5C 217.5,248.5 217.5,222.5 217.5,196.5C 226.167,196.5 234.833,196.5 243.5,196.5C 243.5,231.5 243.5,266.5 243.5,301.5C 164.167,301.5 84.8333,301.5 5.5,301.5C 5.5,266.5 5.5,231.5 5.5,196.5C 14.1667,196.5 22.8333,196.5 31.5,196.5 Z"/></g>
<g><path style="opacity:1" fill="#fbfbfb" d="M 478.5,198.5 C 488.833,198.5 499.167,198.5 509.5,198.5C 509.666,205.508 509.5,212.508 509,219.5C 506.789,228.708 500.956,234.208 491.5,236C 484.167,236.667 476.833,236.667 469.5,236C 457.154,232.369 452.654,224.203 456,211.5C 460.805,202.407 468.305,198.073 478.5,198.5 Z"/></g>
<g><path style="opacity:1" fill="#88898a" d="M 1404.5,203.5 C 1405.17,203.5 1405.83,203.5 1406.5,203.5C 1405.83,206.167 1405.17,206.167 1404.5,203.5 Z"/></g>
<g><path style="opacity:1" fill="#f38023" d="M 58.5,222.5 C 102.5,222.5 146.5,222.5 190.5,222.5C 190.5,231.167 190.5,239.833 190.5,248.5C 146.5,248.5 102.5,248.5 58.5,248.5C 58.5,239.833 58.5,231.167 58.5,222.5 Z"/></g>
<g><path style="opacity:1" fill="#686a6b" d="M 417.5,234.5 C 421.833,234.5 426.167,234.5 430.5,234.5C 430.819,239.363 430.486,244.03 429.5,248.5C 429.5,244.167 429.5,239.833 429.5,235.5C 425.298,235.817 421.298,235.483 417.5,234.5 Z"/></g>
<g><path style="opacity:1" fill="#fcdcc3" d="M 58.5,222.5 C 102.664,221.501 146.997,221.168 191.5,221.5C 191.5,230.833 191.5,240.167 191.5,249.5C 146.997,249.832 102.664,249.499 58.5,248.5C 102.5,248.5 146.5,248.5 190.5,248.5C 190.5,239.833 190.5,231.167 190.5,222.5C 146.5,222.5 102.5,222.5 58.5,222.5 Z"/></g>
<g><path style="opacity:1" fill="#dddcdc" d="M 31.5,196.5 C 32.4978,222.328 32.8311,248.328 32.5,274.5C 94.1667,274.5 155.833,274.5 217.5,274.5C 155.669,275.499 93.6689,275.832 31.5,275.5C 31.5,249.167 31.5,222.833 31.5,196.5 Z"/></g>
</svg>
