<?xml version="1.0" encoding="UTF-8"?>
<!DOCTYPE svg PUBLIC "-//W3C//DTD SVG 1.1//EN" "http://www.w3.org/Graphics/SVG/1.1/DTD/svg11.dtd">
<svg xmlns="http://www.w3.org/2000/svg" version="1.1" width="512px" height="512px" style="shape-rendering:geometricPrecision; text-rendering:geometricPrecision; image-rendering:optimizeQuality; fill-rule:evenodd; clip-rule:evenodd" xmlns:xlink="http://www.w3.org/1999/xlink">
<g><path style="opacity:0.977" fill="#ff9800" d="M 332.5,-0.5 C 333.5,-0.5 334.5,-0.5 335.5,-0.5C 380.142,60.4817 424.809,121.482 469.5,182.5C 457.774,192.391 445.607,201.724 433,210.5C 387.721,149.453 342.554,88.2864 297.5,27C 309.353,17.9696 321.02,8.80292 332.5,-0.5 Z"/></g>
<g><path style="opacity:0.977" fill="#ff9800" d="M 250.5,71.5 C 308.147,120.144 365.814,168.81 423.5,217.5C 424.583,218.365 424.749,219.365 424,220.5C 414.833,231.667 405.667,242.833 396.5,254C 394.721,253.956 393.055,253.289 391.5,252C 335.612,203.811 279.446,155.978 223,108.5C 222.333,107.5 222.333,106.5 223,105.5C 232.38,94.2924 241.546,82.9591 250.5,71.5 Z"/></g>
<g><path style="opacity:0.978" fill="#ff9800" d="M 183.5,167.5 C 252.146,198.654 320.48,230.654 388.5,263.5C 388.833,263.833 389.167,264.167 389.5,264.5C 383.257,278.651 376.757,292.651 370,306.5C 302.121,274.478 234.288,242.311 166.5,210C 166.043,209.586 165.709,209.086 165.5,208.5C 171.787,194.929 177.787,181.262 183.5,167.5 Z"/></g>
<g><path style="opacity:0.978" fill="#ff9800" d="M 145.5,270.5 C 219.591,286.118 293.591,302.118 367.5,318.5C 364.114,333.428 361.114,348.428 358.5,363.5C 285.181,348.004 211.847,332.504 138.5,317C 137.572,316.612 136.905,315.945 136.5,315C 139.694,300.194 142.694,285.361 145.5,270.5 Z"/></g>
<g><path style="opacity:0.987" fill="#747474" d="M 447.5,511.5 C 312.167,511.5 176.833,511.5 41.5,511.5C 41.5,450.5 41.5,389.5 41.5,328.5C 56.8333,328.5 72.1667,328.5 87.5,328.5C 87.5,374.167 87.5,419.833 87.5,465.5C 192.167,465.5 296.833,465.5 401.5,465.5C 401.5,419.833 401.5,374.167 401.5,328.5C 416.833,328.5 432.167,328.5 447.5,328.5C 447.5,389.5 447.5,450.5 447.5,511.5 Z"/></g>
<g><path style="opacity:0.963" fill="#ff9700" d="M 131.5,373.5 C 206.833,373.5 282.167,373.5 357.5,373.5C 357.5,389.167 357.5,404.833 357.5,420.5C 282.167,420.5 206.833,420.5 131.5,420.5C 131.5,404.833 131.5,389.167 131.5,373.5 Z"/></g>
</svg>
